<!DOCTYPE svg PUBLIC "-//W3C//DTD SVG 1.1//EN" "http://www.w3.org/Graphics/SVG/1.1/DTD/svg11.dtd">
<!-- Uploaded to: SVG Repo, www.svgrepo.com, Transformed by: SVG Repo Mixer Tools -->
<svg xmlns:dc="http://purl.org/dc/elements/1.1/" xmlns:cc="http://creativecommons.org/ns#" xmlns:rdf="http://www.w3.org/1999/02/22-rdf-syntax-ns#" xmlns:svg="http://www.w3.org/2000/svg" xmlns="http://www.w3.org/2000/svg" xmlns:sodipodi="http://sodipodi.sourceforge.net/DTD/sodipodi-0.dtd" xmlns:inkscape="http://www.inkscape.org/namespaces/inkscape" width="199px" height="199px" viewBox="-98.56 -98.56 645.12 645.12" id="svg2" version="1.1" inkscape:version="0.91 r13725" sodipodi:docname="dot.svg" fill="#dd761c" stroke="#dd761c">
<g id="SVGRepo_bgCarrier" stroke-width="0" transform="translate(0,0), scale(1)">
<path transform="translate(-98.56, -98.56), scale(20.16)" d="M16,27.309109984586634C18.42376081996197,27.63163664652004,20.66655219566065,30.108827646392484,22.96015993707596,29.261476781307437C25.17049948287241,28.44488853369951,25.302197628923228,25.28365263713516,26.672089287137403,23.366411358996633C28.068084871079087,21.412636152334525,31.16022632910694,20.23731108688611,31.123560993829802,17.836332769253637C31.085175323365686,15.322700702466188,27.42306056785419,14.356184393021389,26.49879280563636,12.018333086671053C25.593998170852583,9.729737286432051,27.760326158481345,6.43558491868524,25.955054792496504,4.763066050881253C24.16736101581877,3.1068321861635493,21.11516444696697,5.430113695897298,18.750693398141525,4.839998187647984C16.37605093691471,4.247344137765083,14.840704598434506,1.2569033352149734,12.39627643844705,1.3791187686278459C10.017985471467899,1.4980275040405353,8.079540772378706,3.541280861442059,6.649127521260191,5.44504690326459C5.315802260740063,7.219596566935237,5.466023672908137,9.631388357592101,4.6460720852718325,11.694023117579281C3.8106144383378586,13.795664249869484,1.9059631856146673,15.471005315363408,1.766213373578701,17.728294600942554C1.6204734288841505,20.082338666169903,2.349272564829569,22.56853666298461,3.8607311760216145,24.37913227193905C5.3466275374487395,26.15910653483965,7.694628743898633,26.98602251375791,9.948567503102648,27.53004130318414C11.939639312149646,28.010613577295516,13.96964988750712,27.038933967652458,16,27.309109984586634" fill="#ed9140" strokewidth="0"/>
</g>
<g id="SVGRepo_tracerCarrier" stroke-linecap="round" stroke-linejoin="round" stroke="" stroke-width="0.8960000000000001"/>
<g id="SVGRepo_iconCarrier"> <title id="title3336">dot</title> <defs id="defs4"/> <sodipodi:namedview id="base" pagecolor="#ffffff" bordercolor="#666666" borderopacity="1.0" inkscape:pageopacity="0.0" inkscape:pageshadow="2" inkscape:zoom="0.7" inkscape:cx="254.62121" inkscape:cy="244.19737" inkscape:document-units="px" inkscape:current-layer="layer1" showgrid="true" fit-margin-top="448" fit-margin-right="384" fit-margin-left="0" fit-margin-bottom="0" units="px" inkscape:window-width="1196" inkscape:window-height="852" inkscape:window-x="132" inkscape:window-y="423" inkscape:window-maximized="0" inkscape:snap-bbox="true" inkscape:bbox-nodes="true"> <inkscape:grid type="xygrid" id="grid3347" spacingx="16" spacingy="16" empspacing="2" originx="0" originy="-1.7498462e-005"/> </sodipodi:namedview> <metadata id="metadata7"> <rdf:rdf> <cc:work rdf:about=""> <dc:format>image/svg+xml</dc:format> <dc:type rdf:resource="http://purl.org/dc/dcmitype/StillImage"/> <dc:title>dot</dc:title> </cc:work> </rdf:rdf> </metadata> <g inkscape:label="Layer 1" inkscape:groupmode="layer" id="layer1" transform="translate(0,-604.36224)"> <circle style="fill-opacity:1;stroke-width:0.00448;stroke-linecap:round;stroke-miterlimit:4;stroke-dasharray:none;stroke-opacity:1" id="path3334" cx="224" cy="828.36224" r="192"/> </g> </g>
</svg>